<?xml version="1.0" standalone="no"?>
<!DOCTYPE svg PUBLIC "-//W3C//DTD SVG 20010904//EN"
 "http://www.w3.org/TR/2001/REC-SVG-20010904/DTD/svg10.dtd">
<svg version="1.0" xmlns="http://www.w3.org/2000/svg"
 width="1160.000000pt" height="1160.000000pt" viewBox="0 0 1160.000000 1160.000000"
 preserveAspectRatio="xMidYMid meet">
<metadata>
Created by potrace 1.11, written by Peter Selinger 2001-2013
</metadata>
<g transform="translate(0.000000,1160.000000) scale(0.100000,-0.100000)"
fill="#000000" stroke="none">
<path d="M0 5800 l0 -4640 5800 0 5800 0 0 4640 0 4640 -5800 0 -5800 0 0
-4640z m4540 3740 l0 -110 150 0 150 0 0 110 c0 103 1 110 20 110 19 0 20 -7
20 -245 0 -238 -1 -245 -20 -245 -19 0 -20 7 -20 115 l0 115 -150 0 -150 0 0
-115 c0 -108 -1 -115 -20 -115 -19 0 -20 7 -20 245 0 238 1 245 20 245 19 0
20 -7 20 -110z m1895 90 c0 -12 -18 -16 -87 -18 l-88 -3 0 -224 c0 -218 -1
-225 -20 -225 -19 0 -20 7 -20 225 l0 225 -90 0 c-84 0 -90 1 -90 20 0 20 5
20 198 18 167 -3 197 -5 197 -18z m-1233 -115 c44 -18 92 -72 108 -120 25 -74
-9 -165 -79 -212 -47 -32 -135 -32 -182 0 -96 64 -108 221 -23 298 52 47 116
60 176 34z m1467 -18 c100 -66 108 -215 16 -295 -42 -38 -70 -46 -134 -40 -88
9 -151 84 -151 182 0 146 150 231 269 153z m-1219 -127 c34 -83 65 -148 68
-145 3 3 20 38 37 78 l32 73 -23 51 c-35 81 -38 93 -19 93 10 0 25 -20 40 -52
l23 -53 22 53 c16 36 28 52 41 52 11 0 19 -2 19 -4 0 -2 -13 -34 -29 -70 l-30
-65 26 -63 c44 -110 42 -109 70 -42 84 202 106 244 124 244 10 0 19 -2 19 -4
0 -4 -118 -280 -140 -328 -23 -49 -42 -34 -80 57 -19 47 -38 85 -41 85 -3 0
-22 -37 -41 -82 -51 -121 -56 -118 -145 86 -40 93 -73 173 -73 178 0 4 8 8 18
8 15 0 33 -34 82 -150z m-1730 -1227 l0 -277 53 55 c109 115 198 154 327 147
103 -6 186 -45 259 -123 177 -187 172 -488 -9 -666 -65 -63 -136 -101 -224
-119 -115 -23 -249 23 -348 122 l-58 56 0 -84 c0 -77 -2 -84 -20 -84 -20 0
-20 7 -20 618 0 340 3 622 7 625 3 4 12 7 20 7 10 0 13 -53 13 -277z m4478
204 c3 -62 1 -67 -18 -67 -18 0 -20 6 -20 71 0 62 2 70 18 67 14 -3 18 -16 20
-71z m-7146 -144 c43 -98 118 -272 169 -388 50 -115 127 -293 171 -395 44
-102 81 -186 83 -188 1 -1 20 39 43 90 22 51 79 183 127 293 48 110 93 214
100 230 13 29 8 43 -95 278 -103 236 -107 248 -84 245 21 -3 33 -23 90 -153
36 -82 77 -178 91 -212 14 -35 28 -63 32 -63 3 0 49 97 100 215 83 189 96 215
116 215 22 0 18 -12 -67 -207 -50 -115 -98 -226 -108 -248 l-17 -40 141 -323
141 -323 27 58 c14 32 55 126 91 208 67 154 280 644 346 795 29 65 42 86 59
88 12 2 22 1 22 -2 0 -3 -54 -130 -121 -283 -253 -581 -322 -741 -361 -830
-63 -146 -57 -152 -222 227 -76 176 -142 320 -145 320 -3 0 -42 -82 -85 -183
-44 -100 -106 -244 -139 -319 -50 -115 -63 -138 -81 -138 -18 0 -44 53 -185
378 -91 207 -205 469 -254 582 -119 274 -111 250 -84 250 20 0 32 -22 99 -177z
m4671 162 c256 -54 416 -278 417 -583 0 -320 -156 -535 -435 -597 -54 -12
-120 -15 -295 -13 l-225 3 -3 603 -2 602 237 0 c168 0 258 -5 306 -15z m-2503
-332 c82 -38 145 -95 189 -167 39 -65 71 -171 71 -233 l0 -43 -401 0 -402 0 7
-47 c9 -71 59 -166 117 -228 145 -153 374 -158 521 -10 21 21 40 46 43 56 4
11 13 19 20 19 68 0 -41 -137 -148 -185 -163 -74 -325 -45 -458 81 -107 103
-163 266 -139 413 21 136 88 245 193 314 77 51 137 67 237 64 71 -2 96 -8 150
-34z m3673 -1 c147 -68 257 -237 257 -394 l0 -48 -400 0 -400 0 0 -23 c0 -13
9 -50 20 -82 68 -197 242 -314 421 -283 104 18 198 75 234 142 20 37 42 46 51
22 7 -19 -37 -84 -81 -119 -86 -69 -223 -106 -323 -87 -139 25 -253 117 -320
257 -37 77 -37 79 -37 203 0 124 0 126 37 202 79 166 213 251 388 245 71 -2
97 -8 153 -35z m921 -1 c36 -18 75 -45 86 -61 19 -26 19 -29 4 -38 -13 -7 -25
-2 -50 23 -49 49 -120 70 -239 70 -89 -1 -106 -4 -152 -28 -70 -36 -103 -91
-103 -171 0 -106 25 -123 277 -187 247 -63 294 -97 301 -221 3 -54 0 -75 -19
-112 -28 -56 -50 -78 -114 -109 -147 -73 -358 -49 -477 54 -27 22 -48 45 -48
50 0 25 33 18 73 -15 57 -46 117 -72 197 -85 119 -19 249 17 309 85 53 60 55
163 4 216 -39 41 -90 61 -272 107 -233 59 -271 89 -271 216 0 74 20 123 67
166 64 60 132 79 265 75 86 -3 105 -7 162 -35z m1127 23 c71 -21 148 -73 204
-137 l45 -52 0 98 c0 91 1 97 20 97 21 0 21 -2 18 -507 -3 -492 -4 -509 -24
-554 -42 -91 -118 -153 -225 -185 -78 -24 -277 -16 -340 13 -82 37 -205 166
-177 185 21 13 25 10 56 -33 69 -93 173 -139 315 -139 168 0 265 50 325 165
23 45 26 64 30 194 l5 144 -59 -59 c-67 -67 -141 -107 -230 -124 -236 -46
-484 184 -484 450 0 204 127 391 303 445 58 19 153 18 218 -1z m1127 -14 c47
-26 81 -73 108 -146 16 -43 19 -91 22 -386 3 -336 3 -338 -17 -338 -21 0 -21
3 -21 298 0 320 -7 390 -46 462 -33 61 -79 91 -152 97 -145 13 -312 -89 -384
-235 -22 -45 -23 -58 -26 -334 -3 -278 -4 -288 -22 -288 -20 0 -20 10 -20 445
0 438 0 445 20 445 19 0 20 -7 20 -107 l0 -108 27 35 c49 64 107 111 178 145
86 41 100 44 195 41 58 -2 86 -8 118 -26z m-1868 -425 c0 -438 0 -445 -20
-445 -20 0 -20 7 -20 445 0 438 0 445 20 445 20 0 20 -7 20 -445z m-4520
-1880 l0 -74 38 25 c52 36 105 29 149 -20 28 -30 33 -43 33 -86 0 -28 -7 -64
-15 -80 -30 -59 -121 -79 -176 -39 l-29 20 0 -20 c0 -12 -4 -21 -10 -21 -6 0
-10 68 -10 185 0 117 4 185 10 185 6 0 10 -32 10 -75z m2360 55 c0 -11 -4 -20
-10 -20 -5 0 -10 9 -10 20 0 11 5 20 10 20 6 0 10 -9 10 -20z m1386 -17 c-11
-11 -19 6 -11 24 8 17 8 17 12 0 3 -10 2 -21 -1 -24z m314 -132 c0 -93 3 -176
6 -185 4 -9 1 -16 -6 -16 -6 0 -14 9 -17 20 -5 20 -5 20 -30 0 -55 -43 -143
-18 -178 50 -64 123 84 260 181 169 l24 -22 0 76 c0 45 4 77 10 77 6 0 10 -63
10 -169z m-4331 -1 c76 -172 86 -200 74 -200 -4 0 -20 28 -34 63 l-25 62 -91
3 -90 3 -27 -66 c-16 -36 -32 -65 -37 -65 -11 0 -6 12 68 180 33 74 63 145 67
158 4 13 12 22 17 20 6 -2 41 -73 78 -158z m1121 105 c0 -44 1 -45 33 -47 l32
-1 -32 -4 -33 -4 0 -116 0 -115 35 4 c22 2 34 0 32 -6 -5 -16 -56 -19 -73 -5
-11 9 -14 38 -14 125 0 111 -1 114 -22 115 l-23 2 23 4 c19 4 22 11 22 49 0
24 5 44 10 44 6 0 10 -20 10 -45z m1400 -44 l35 -4 -35 -6 -35 -6 -3 -90 c-4
-125 0 -138 44 -133 21 2 33 0 31 -6 -5 -16 -56 -19 -73 -5 -11 9 -14 38 -14
125 0 111 -1 114 -22 115 l-23 0 23 9 c18 8 22 18 24 52 l1 43 6 -45 c6 -43 8
-45 41 -49z m-1805 -5 c39 -17 75 -68 75 -108 l0 -28 -115 0 c-77 0 -115 -4
-115 -11 0 -24 36 -70 67 -84 40 -19 78 -11 116 23 22 21 27 23 27 9 0 -26
-59 -57 -107 -57 -129 0 -169 203 -50 255 41 18 60 18 102 1z m270 0 c19 -8
35 -20 35 -25 0 -15 -11 -13 -34 4 -24 18 -86 19 -110 2 -21 -16 -19 -66 4
-77 8 -4 41 -15 72 -24 63 -18 82 -40 72 -81 -9 -37 -41 -55 -97 -55 -47 0
-97 22 -97 42 0 6 12 2 27 -7 37 -25 105 -25 132 -1 41 37 15 79 -59 92 -65
12 -90 31 -90 68 0 64 69 93 145 62z m630 0 c89 -38 102 -186 21 -240 -35 -22
-92 -20 -132 5 l-34 21 0 -71 c0 -41 -4 -71 -10 -71 -6 0 -10 67 -10 180 0
113 4 180 10 180 6 0 10 -7 10 -15 0 -17 16 -20 25 -4 18 28 71 35 120 15z
m444 -1 c39 -20 51 -61 51 -169 -1 -75 -3 -88 -13 -75 -11 15 -16 15 -37 3
-14 -7 -46 -13 -72 -14 -39 0 -50 4 -67 26 -29 37 -27 78 5 103 21 17 41 21
95 21 67 0 69 1 69 25 0 35 -42 75 -77 75 -15 0 -41 -7 -57 -15 -33 -17 -52
-10 -21 8 49 29 85 32 124 12z m307 -10 c13 -8 24 -23 24 -31 0 -12 -7 -10
-31 10 -57 48 -135 27 -163 -45 -14 -34 -15 -48 -5 -78 15 -47 27 -61 67 -78
40 -17 93 -4 116 28 8 12 17 16 20 11 3 -6 -8 -22 -25 -36 -46 -39 -108 -36
-156 7 -31 29 -37 41 -40 88 -3 42 0 61 17 87 37 59 117 76 176 37z m532 -9
c14 -14 23 -28 19 -32 -3 -4 -15 3 -24 15 -25 30 -94 39 -128 17 -102 -67 -42
-243 75 -220 16 4 41 18 55 32 19 18 25 21 25 9 0 -51 -115 -76 -170 -37 -27
19 -60 84 -60 117 0 35 41 101 73 117 44 23 103 15 135 -18z m274 -4 c27 -27
53 -94 40 -106 -3 -4 -56 -6 -118 -6 l-113 0 10 -29 c28 -81 130 -103 181 -38
14 18 18 19 18 5 0 -27 -48 -58 -92 -58 -82 0 -128 49 -128 139 0 39 6 56 27
81 34 40 58 51 107 46 26 -3 49 -14 68 -34z m394 22 c19 -9 34 -20 34 -25 0
-19 19 -8 23 14 2 12 5 -47 6 -131 0 -93 -3 -161 -10 -174 -13 -24 -67 -48
-109 -48 -39 0 -86 24 -100 50 -14 27 -4 25 32 -5 22 -18 41 -25 73 -25 59 0
94 30 102 88 6 47 2 50 -34 22 -17 -13 -41 -20 -69 -20 -55 0 -109 47 -119
104 -11 55 19 123 65 147 43 23 62 24 106 3z m1035 -20 c30 -29 55 -87 44
-104 -4 -6 -54 -10 -121 -10 -63 0 -114 -2 -114 -5 0 -13 29 -61 46 -76 43
-37 111 -30 146 14 14 18 18 19 18 5 0 -48 -99 -75 -161 -42 -40 20 -73 93
-65 140 8 37 48 91 80 105 36 15 96 3 127 -27z m-2821 6 l0 -21 22 21 c12 11
33 20 47 19 25 -1 25 -1 -6 -15 -52 -22 -63 -48 -63 -146 0 -48 -4 -90 -10
-93 -6 -4 -10 40 -10 124 0 81 4 131 10 131 6 0 10 -9 10 -20z m850 -110 c0
-80 -4 -130 -10 -130 -6 0 -10 50 -10 130 0 80 4 130 10 130 6 0 10 -50 10
-130z m1102 24 c3 -98 5 -107 27 -125 32 -26 76 -17 116 22 28 27 30 36 36
122 l5 92 2 -117 c1 -64 5 -123 8 -132 3 -9 1 -16 -5 -16 -6 0 -11 11 -11 26
l0 25 -33 -25 c-46 -36 -105 -35 -138 0 -21 22 -24 36 -27 130 -3 67 -1 104 6
104 6 0 12 -43 14 -106z m288 -25 c0 -84 -4 -128 -10 -124 -6 4 -10 58 -10
131 0 76 4 124 10 124 6 0 10 -50 10 -131z m-2645 11 c4 -6 -22 -10 -69 -10
-44 0 -76 4 -76 10 0 6 30 10 69 10 39 0 73 -4 76 -10z m-2325 -521 c11 -8 7
-9 -17 -5 -40 7 -71 -17 -79 -61 -6 -33 -6 -33 37 -35 l44 -1 -42 -4 -43 -4
-2 -127 -2 -127 -3 128 c-4 123 -4 127 -26 128 l-22 2 23 4 c17 3 22 11 22 37
0 59 65 97 110 65z m780 -70 l0 -70 25 20 c50 39 109 36 142 -8 8 -11 12 -53
11 -126 l-1 -110 -7 107 c-5 84 -10 111 -25 127 -27 30 -68 26 -110 -10 l-35
-31 0 -94 c0 -56 -4 -94 -10 -94 -6 0 -10 69 -10 186 0 121 3 183 10 179 6 -3
10 -38 10 -76z m1667 -115 c-1 -110 -6 -170 -11 -157 l-8 23 -25 -20 c-32 -25
-104 -27 -139 -4 -34 23 -54 65 -54 116 0 111 111 172 195 107 l25 -20 0 77
c0 53 3 75 10 68 7 -7 9 -77 7 -190z m1653 116 l0 -69 36 24 c42 29 61 31 107
11 121 -50 85 -256 -44 -256 -41 0 -78 14 -91 34 -5 6 -8 1 -8 -11 0 -13 -4
-23 -10 -23 -6 0 -10 69 -10 186 0 121 3 183 10 179 6 -3 10 -37 10 -75z m642
-148 c2 -78 0 -142 -4 -142 -5 0 -8 9 -8 20 0 20 0 20 -32 0 -19 -11 -51 -20
-75 -20 -113 0 -163 154 -75 235 42 39 83 42 137 11 l45 -27 2 78 c2 99 7 29
10 -155z m625 191 c-3 -10 -5 -4 -5 12 0 17 2 24 5 18 2 -7 2 -21 0 -30z
m-4737 -28 c0 -44 1 -45 33 -47 l32 -1 -32 -4 -33 -4 0 -108 c0 -123 9 -144
56 -122 20 9 25 9 22 -1 -3 -7 -20 -14 -38 -16 -52 -5 -60 14 -60 140 0 96 -2
108 -17 109 -17 1 -17 2 0 6 13 3 17 15 17 49 0 24 5 44 10 44 6 0 10 -20 10
-45z m-454 -51 c67 -32 93 -117 58 -190 -42 -89 -172 -85 -219 6 -32 62 -7
141 57 180 40 24 60 25 104 4z m1041 -10 c30 -19 63 -72 63 -101 0 -23 -2 -23
-115 -23 -104 0 -115 -2 -115 -18 0 -26 27 -60 62 -78 37 -19 88 -12 113 16
22 24 37 26 28 5 -14 -38 -104 -58 -155 -34 -38 17 -68 70 -68 120 0 108 102
169 187 113z m425 -4 c30 -30 31 -31 45 -11 7 11 31 26 53 32 33 10 43 9 65
-5 14 -9 30 -28 35 -42 13 -34 13 -214 0 -214 -6 0 -10 38 -10 94 0 52 -4 106
-10 120 -19 51 -100 42 -133 -13 -12 -21 -17 -52 -17 -115 0 -126 -18 -105
-22 25 -3 96 -6 113 -22 125 -32 23 -65 17 -102 -20 -34 -34 -34 -35 -34 -125
0 -54 -4 -91 -10 -91 -6 0 -10 50 -10 130 0 80 4 130 10 130 6 0 10 -12 11
-27 0 -16 3 -22 6 -15 8 20 64 52 91 52 13 0 37 -14 54 -30z m444 13 c121 -58
81 -253 -51 -253 -120 0 -171 168 -72 239 48 35 72 38 123 14z m599 3 c39 -17
75 -68 75 -108 l0 -28 -115 0 c-77 0 -115 -4 -115 -11 0 -39 66 -99 110 -99
27 0 77 26 83 42 2 7 8 9 13 5 5 -5 -3 -19 -19 -33 -40 -35 -114 -34 -156 2
-76 64 -57 196 34 234 30 13 52 12 90 -4z m480 -11 c24 -23 25 -29 23 -137
l-1 -113 -7 110 c-4 61 -8 111 -9 112 -30 43 -79 43 -126 2 l-35 -31 0 -94 c0
-56 -4 -94 -10 -94 -6 0 -10 50 -10 130 0 80 4 130 10 130 6 0 10 -10 10 -22
0 -20 1 -20 18 -5 45 41 103 47 137 12z m781 9 c36 -17 74 -76 74 -114 0 -19
-6 -20 -115 -20 -97 0 -115 -2 -115 -15 0 -25 30 -65 61 -81 41 -21 73 -17
107 11 34 29 44 31 35 10 -8 -24 -57 -45 -101 -45 -129 0 -169 203 -49 255 42
19 62 18 103 -1z m1051 -9 c30 -20 51 -53 59 -93 l7 -32 -117 0 c-109 0 -116
-1 -116 -20 0 -11 13 -34 29 -52 25 -28 36 -33 74 -33 34 0 52 6 71 24 25 23
42 27 28 5 -46 -67 -171 -54 -207 22 -59 124 62 250 172 179z m274 -1 c26 -23
18 -28 -17 -9 -41 21 -90 19 -114 -5 -40 -40 -18 -72 62 -89 29 -7 60 -19 70
-28 24 -21 23 -68 -2 -93 -25 -25 -114 -28 -148 -4 -35 24 -26 36 11 14 41
-26 87 -25 121 1 51 40 26 76 -69 98 -63 16 -75 26 -75 66 0 31 18 56 50 68
26 11 91 0 111 -19z m362 -4 l27 -21 0 21 c0 11 5 20 10 20 6 0 10 -57 10
-150 l0 -150 -29 -32 c-27 -30 -34 -33 -90 -33 -53 0 -64 4 -88 27 -15 15 -24
31 -20 35 4 4 14 -3 23 -15 32 -46 136 -46 169 1 8 12 15 39 15 60 l0 38 -26
-20 c-18 -14 -41 -21 -70 -21 -36 0 -51 6 -80 33 -31 28 -37 41 -41 83 -10
120 98 191 190 124z m289 19 c33 -18 48 -71 48 -169 0 -49 -4 -90 -9 -90 -5 0
-11 50 -13 111 -3 97 -6 113 -23 126 -30 22 -85 10 -117 -27 -26 -28 -28 -36
-28 -120 0 -53 -4 -90 -10 -90 -6 0 -10 50 -10 130 0 80 4 130 10 130 6 0 10
-8 10 -19 0 -17 3 -17 47 5 52 27 66 29 95 13z m284 -5 c36 -17 74 -76 74
-114 0 -19 -6 -20 -115 -20 -74 0 -115 -4 -115 -10 0 -25 32 -71 60 -85 42
-22 74 -19 110 11 39 33 52 24 15 -10 -36 -34 -109 -36 -149 -5 -79 62 -71
189 14 231 43 22 63 22 106 2z m-5845 -19 c17 14 39 25 50 25 28 0 23 -8 -15
-24 -48 -20 -60 -48 -67 -151 -5 -82 -6 -78 -6 45 0 74 2 122 4 107 l4 -28 30
26z m2479 4 l0 -20 26 20 c15 12 38 21 53 20 26 -1 26 -1 -5 -14 -60 -26 -74
-57 -74 -156 0 -53 -4 -89 -10 -89 -6 0 -10 50 -10 130 0 80 4 130 10 130 6 0
10 -9 10 -21z m597 -95 l51 -116 26 57 c31 69 32 84 6 135 -12 23 -16 40 -10
40 6 0 18 -16 26 -35 8 -19 16 -35 19 -35 3 0 11 16 19 35 8 19 19 35 25 35 5
0 1 -21 -10 -46 -22 -49 -21 -64 12 -139 l21 -48 50 114 c53 121 55 125 63
117 7 -7 -99 -251 -111 -255 -5 -1 -20 23 -33 55 -13 31 -27 61 -31 65 -4 5
-20 -21 -35 -57 -15 -36 -31 -66 -35 -66 -6 0 -78 153 -117 248 -3 6 -1 12 4
12 5 0 32 -52 60 -116z m1930 -81 c-2 -38 -3 -7 -3 67 0 74 1 105 3 68 2 -38
2 -98 0 -135z m993 176 l0 -20 26 20 c15 12 38 21 53 20 23 0 21 -3 -16 -19
-23 -10 -46 -28 -52 -39 -6 -11 -11 -60 -11 -110 0 -54 -4 -91 -10 -91 -6 0
-10 50 -10 130 0 80 4 130 10 130 6 0 10 -9 10 -21z m-4890 -965 l0 -76 31 26
c85 72 198 -5 187 -126 -10 -95 -103 -146 -183 -100 -28 17 -35 18 -35 7 0 -8
-4 -15 -10 -15 -6 0 -10 67 -10 180 0 113 4 180 10 180 6 0 10 -32 10 -76z
m1962 -91 l3 -168 28 -3 c16 -2 27 -8 24 -15 -5 -17 -42 -20 -66 -7 -20 10
-21 19 -21 185 0 148 2 175 15 175 12 0 15 -28 17 -167z m-1065 131 c47 -35
68 -82 68 -149 -1 -72 -23 -122 -68 -152 -29 -20 -46 -23 -125 -23 l-92 0 0
176 0 176 94 -4 c77 -2 100 -7 123 -24z m1479 10 c19 -9 34 -20 34 -25 0 -17
-21 -20 -42 -5 -13 10 -43 16 -73 16 -42 0 -56 -5 -75 -25 -20 -21 -22 -30
-14 -52 10 -28 22 -34 136 -67 60 -18 88 -44 88 -83 0 -31 -18 -67 -41 -81
-50 -32 -161 -23 -210 17 -38 31 -14 42 34 15 92 -52 208 -11 175 62 -12 26
-35 37 -111 54 -72 16 -107 47 -107 92 0 39 23 76 54 88 35 14 116 11 152 -6z
m-2058 -195 l57 -121 49 114 c26 62 52 117 57 122 19 21 7 -18 -40 -126 -105
-243 -102 -238 -125 -237 -11 0 -15 3 -8 6 15 6 52 75 52 97 0 8 -22 63 -49
120 -54 114 -66 146 -56 146 3 0 32 -54 63 -121z m869 106 c28 -20 41 -68 45
-167 3 -81 -5 -104 -26 -75 -12 16 -16 16 -42 2 -71 -37 -154 -2 -154 65 0 56
50 85 135 78 45 -3 46 -3 43 26 -2 18 -14 37 -30 49 -26 20 -28 20 -73 2 -57
-21 -84 -7 -33 18 42 21 107 22 135 2z m143 -11 l0 -26 31 26 c33 28 69 34 69
13 0 -7 -16 -19 -35 -26 -49 -17 -65 -54 -65 -146 0 -60 -3 -75 -15 -75 -13 0
-15 21 -15 130 0 109 2 130 15 130 9 0 15 -10 15 -26z m177 7 c5 -19 6 -19 39
1 33 19 64 19 64 -1 0 -5 -13 -12 -30 -16 -53 -12 -70 -46 -70 -141 0 -68 -3
-84 -15 -84 -13 0 -15 21 -15 130 0 87 4 130 11 130 6 0 13 -9 16 -19z m191
-86 c24 -55 47 -103 51 -107 3 -4 27 40 51 99 25 59 51 108 58 111 6 2 12 -2
12 -8 0 -11 -108 -278 -135 -332 l-13 -28 884 0 c583 0 884 -3 884 -10 0 -7
-492 -10 -1455 -10 -963 0 -1455 3 -1455 10 0 7 187 10 541 10 l542 0 28 30
c48 50 47 68 -12 202 -30 67 -56 125 -58 130 -2 6 5 8 15 6 11 -2 32 -37 62
-103z m812 85 c0 -25 2 -25 42 0 44 27 99 26 124 -1 16 -17 20 -40 22 -130 3
-94 2 -109 -12 -109 -13 0 -16 15 -16 93 0 68 -4 99 -16 115 -21 30 -65 29
-103 -4 -30 -25 -31 -28 -31 -115 0 -78 -2 -89 -17 -89 -16 0 -18 12 -15 130
2 73 7 130 13 130 5 0 9 -9 9 -20z m446 0 c107 -67 58 -250 -67 -250 -127 1
-176 168 -73 249 35 27 96 27 140 1z m154 -82 c24 -57 46 -107 50 -111 4 -5
17 17 30 47 22 54 22 57 5 98 -9 24 -19 49 -22 56 -3 6 2 12 10 12 9 0 20 -15
27 -35 6 -19 15 -35 19 -35 4 0 13 16 20 35 7 19 19 35 27 35 18 0 18 -2 -7
-60 l-21 -49 23 -56 c12 -30 26 -52 29 -48 4 5 26 54 50 111 24 57 49 102 57
102 7 0 13 -3 13 -7 0 -5 -23 -63 -52 -130 -62 -143 -74 -151 -108 -68 -12 30
-25 55 -29 55 -4 0 -18 -25 -30 -55 -35 -84 -48 -76 -109 68 -29 67 -52 126
-52 130 0 4 6 7 13 7 8 0 33 -45 57 -102z m-3010 -723 c0 -39 0 -39 34 -24 20
10 30 9 51 -5 23 -15 25 -23 25 -86 0 -40 -4 -70 -10 -70 -6 0 -10 26 -10 59
0 71 -18 98 -53 79 -32 -16 -37 -27 -37 -85 0 -29 -4 -53 -10 -53 -6 0 -10 43
-10 110 0 67 4 110 10 110 6 0 10 -16 10 -35z m180 6 c0 -23 5 -31 23 -34 l22
-4 -23 -8 c-21 -7 -23 -13 -20 -64 3 -51 5 -56 26 -55 12 0 21 -4 19 -10 -2
-6 -17 -11 -33 -11 -29 0 -29 1 -32 65 -2 35 -8 68 -15 73 -9 7 -9 10 1 14 6
2 12 18 12 34 0 16 5 29 10 29 6 0 10 -13 10 -29z m100 0 c0 -23 5 -31 23 -34
l22 -4 -23 -8 c-21 -7 -23 -13 -20 -64 3 -51 5 -56 26 -55 29 1 23 -20 -8 -24
-31 -5 -40 13 -40 79 0 30 -5 60 -12 67 -9 9 -9 12 0 12 7 0 12 13 12 30 0 17
5 30 10 30 6 0 10 -13 10 -29z m620 24 c0 -8 -131 -205 -141 -211 -6 -3 -12
-4 -15 -2 -6 7 134 218 146 218 5 0 10 -2 10 -5z m53 -84 c-84 -129 -90 -137
-98 -129 -10 10 124 218 141 218 9 0 -8 -34 -43 -89z m1157 49 l0 -40 25 16
c21 14 30 14 55 4 53 -22 67 -86 29 -134 -22 -28 -75 -36 -97 -14 -9 9 -12 9
-12 0 0 -7 -4 -12 -10 -12 -6 0 -10 43 -10 110 0 67 4 110 10 110 6 0 10 -18
10 -40z m1060 4 c0 -15 6 -24 15 -24 8 0 15 -4 15 -10 0 -5 -7 -10 -15 -10
-13 0 -15 -11 -13 -57 2 -47 6 -58 20 -58 10 0 18 -5 18 -10 0 -6 -12 -10 -27
-10 -27 0 -28 2 -31 65 -2 35 -8 68 -15 73 -9 7 -9 10 1 14 6 2 12 18 12 34 0
18 4 28 10 24 6 -3 10 -17 10 -31z m-2689 -43 c67 -68 0 -175 -82 -131 -17 10
-19 7 -19 -30 0 -22 -4 -40 -10 -40 -6 0 -10 44 -10 111 0 85 3 110 13 106 6
-2 21 -1 32 4 34 13 45 10 76 -20z m150 19 c30 -17 22 -29 -11 -17 -25 9 -33
9 -47 -6 -21 -21 -12 -31 42 -49 69 -22 56 -88 -18 -88 -34 0 -70 17 -62 31 4
5 14 5 26 -2 31 -16 74 -8 74 15 0 14 -10 22 -35 29 -43 11 -60 24 -60 48 0
19 35 49 58 49 7 0 22 -5 33 -10z m668 -5 c32 -16 41 -33 41 -78 0 -67 -78
-101 -127 -55 -39 37 -27 119 20 138 31 12 34 12 66 -5z m733 -13 c10 -9 19
-28 20 -42 3 -24 0 -25 -65 -30 l-68 -5 16 -22 c19 -27 60 -30 87 -6 16 15 18
15 18 0 0 -9 -9 -21 -19 -27 -55 -29 -121 11 -121 73 0 74 80 110 132 59z
m407 13 c30 -15 41 -33 41 -66 0 -17 -8 -19 -65 -19 -36 0 -65 -3 -65 -7 0 -3
7 -15 17 -25 20 -22 56 -24 73 -3 7 8 17 12 22 9 17 -11 -24 -44 -55 -44 -43
0 -77 35 -77 77 0 43 15 72 43 83 31 12 34 12 66 -5z m353 -12 c37 -33 26
-120 -17 -137 -26 -10 -60 -7 -73 6 -9 9 -12 3 -12 -30 0 -31 -4 -42 -15 -42
-12 0 -15 19 -15 110 0 67 4 110 10 110 6 0 10 -4 10 -9 0 -6 12 -3 28 4 29
16 57 12 84 -12z m161 16 c25 -11 47 -47 47 -74 0 -12 -15 -15 -65 -15 -67 0
-77 -7 -49 -34 20 -20 58 -21 74 -1 7 8 17 12 23 8 16 -10 -31 -43 -62 -43
-87 0 -109 127 -28 160 30 12 32 12 60 -1z m-2243 -14 c0 -8 -4 -15 -10 -15
-5 0 -10 7 -10 15 0 8 5 15 10 15 6 0 10 -7 10 -15z m357 -45 c14 -33 29 -58
33 -55 4 2 15 26 25 52 19 52 31 70 40 61 9 -9 -78 -210 -93 -215 -21 -9 -26
5 -8 22 23 23 20 44 -14 120 -34 76 -34 75 -20 75 6 0 22 -27 37 -60z m333 2
c0 -78 29 -104 72 -65 13 12 18 30 18 70 0 82 17 63 22 -24 3 -43 3 -80 2 -82
-2 -2 -9 1 -17 7 -8 7 -18 7 -27 2 -26 -17 -69 -11 -80 9 -13 25 -13 141 0
141 6 0 10 -26 10 -58z m180 46 c0 -9 3 -9 12 0 15 15 48 16 48 2 0 -5 -5 -10
-12 -10 -29 0 -48 -33 -48 -87 0 -29 -4 -53 -10 -53 -6 0 -10 33 -10 80 0 47
4 80 10 80 6 0 10 -5 10 -12z m120 -50 l28 -63 13 28 c9 20 10 36 2 62 -11 34
1 52 13 20 4 -8 10 -15 15 -15 5 0 9 7 9 15 0 8 5 15 10 15 13 0 13 -16 0 -40
-7 -14 -6 -29 4 -52 l14 -33 28 63 c24 54 44 79 44 55 0 -14 -64 -153 -70
-153 -3 0 -15 17 -25 38 l-18 37 -15 -38 c-8 -21 -20 -36 -26 -34 -15 5 -78
157 -65 157 6 0 23 -28 39 -62z m841 31 l21 -30 28 33 c16 18 32 30 36 25 4
-4 -2 -17 -13 -30 -34 -38 -35 -46 -7 -82 35 -46 21 -61 -15 -16 l-27 33 -27
-32 c-38 -45 -55 -32 -18 14 l31 38 -31 39 c-22 28 -26 39 -16 39 9 0 25 -14
38 -31z m509 21 c0 -7 6 -7 19 0 25 13 41 13 41 0 0 -5 -6 -10 -14 -10 -25 0
-46 -42 -46 -92 0 -27 -4 -48 -10 -48 -6 0 -10 33 -10 80 0 47 4 80 10 80 6 0
10 -5 10 -10z m-2340 -135 c0 -8 -4 -15 -10 -15 -5 0 -10 7 -10 15 0 8 5 15
10 15 6 0 10 -7 10 -15z m1580 -1 c0 -8 -4 -12 -10 -9 -5 3 -10 10 -10 16 0 5
5 9 10 9 6 0 10 -7 10 -16z m148 -131 c-467 -2 -1229 -2 -1695 0 -467 1 -85 2
847 2 932 0 1314 -1 848 -2z m-691 -865 c-1 -40 -3 -10 -3 67 0 77 1 110 3 73
2 -37 2 -100 0 -140z m-1190 170 c-3 -8 -6 -5 -6 6 -1 11 2 17 5 13 3 -3 4
-12 1 -19z m2636 11 c24 -13 37 -28 37 -44 0 -5 -7 1 -16 13 -20 30 -68 30
-88 0 -20 -27 -22 -68 -4 -50 17 17 69 15 96 -4 16 -11 22 -25 22 -53 0 -78
-89 -105 -137 -42 -31 40 -4 163 39 181 30 12 26 12 51 -1z m-3202 -143 l21
-49 41 94 c45 104 45 104 52 98 7 -7 -80 -202 -92 -206 -9 -3 -94 182 -92 202
1 10 33 -54 70 -139z m1989 87 c0 -92 -10 -133 -36 -150 -25 -16 -74 -11 -74
8 0 6 7 6 21 -1 16 -9 26 -8 45 5 22 14 24 21 24 105 0 53 4 90 10 90 6 0 10
-26 10 -57z m-651 17 c49 -26 51 -123 4 -160 -53 -42 -113 -1 -113 77 0 70 55
112 109 83z m240 0 c49 -26 51 -123 4 -160 -53 -42 -113 -1 -113 77 0 70 55
112 109 83z m1170 -15 c22 -21 6 -61 -34 -79 -19 -9 -41 -27 -50 -39 -15 -22
-15 -22 42 -28 l58 -6 -62 -1 c-45 -2 -63 2 -63 11 0 23 32 59 67 73 39 17 51
38 33 59 -15 18 -61 20 -78 3 -6 -6 -14 -9 -18 -6 -3 4 7 13 23 22 29 16 59
13 82 -9z m172 -1 c36 -39 34 -107 -5 -141 -53 -45 -116 -7 -116 72 0 85 69
124 121 69z m-1811 -63 c0 -75 1 -80 23 -84 12 -2 0 -4 -28 -4 -27 0 -40 2
-27 4 20 4 22 10 22 74 0 66 -1 69 -19 59 -11 -5 -23 -10 -28 -10 -10 0 39 39
50 40 4 0 7 -36 7 -79z m1930 0 c0 -75 1 -80 23 -84 12 -2 0 -4 -28 -4 -27 0
-40 2 -27 4 20 4 22 10 22 74 0 66 -1 69 -19 59 -11 -5 -23 -10 -28 -10 -10 0
39 39 50 40 4 0 7 -36 7 -79z m-2796 48 c15 -12 26 -30 26 -45 0 -23 -3 -24
-65 -24 -73 0 -84 -14 -39 -49 26 -21 46 -19 77 7 9 8 17 10 17 5 0 -15 -21
-30 -52 -38 -22 -6 -33 -1 -58 23 -38 39 -40 83 -5 117 30 30 64 32 99 4z
m136 11 c0 -5 -6 -10 -14 -10 -24 0 -41 -32 -47 -89 -6 -53 -6 -51 -7 24 0 44
2 75 4 68 4 -8 12 -8 32 3 32 17 32 17 32 4z m126 -5 c23 -17 12 -20 -18 -4
-15 8 -27 8 -45 0 -36 -16 -25 -43 21 -56 64 -18 75 -62 22 -86 -19 -9 -32 -9
-56 1 -16 7 -30 16 -30 21 0 4 15 2 33 -5 38 -16 80 -5 75 20 -3 18 -17 27
-63 41 -21 6 -31 16 -33 33 -7 43 53 66 94 35z m229 -10 c42 -41 30 -116 -22
-136 -77 -29 -136 73 -78 135 30 33 68 34 100 1z m177 8 c14 -13 18 -30 17
-82 -1 -36 -4 -52 -6 -36 -11 98 -15 114 -29 119 -16 6 -54 -10 -66 -28 -4 -6
-8 -35 -8 -63 0 -29 -4 -53 -10 -53 -6 0 -10 32 -10 76 0 67 2 75 18 70 9 -3
24 -1 32 4 22 14 41 12 62 -7z m1412 1 c12 -11 16 -33 14 -82 l-1 -67 -6 68
c-4 44 -11 71 -21 77 -21 13 -24 13 -53 -10 -22 -17 -27 -31 -30 -78 -3 -46
-3 -42 -4 23 -1 44 1 74 4 68 4 -10 10 -10 26 2 28 19 52 19 71 -1z m181 -9
c14 -13 25 -33 25 -45 0 -18 -6 -20 -65 -20 -69 0 -82 -12 -49 -44 24 -25 58
-24 88 2 16 14 18 14 14 2 -2 -8 -17 -21 -31 -28 -77 -38 -144 71 -82 133 13
14 36 25 50 25 14 0 37 -11 50 -25z m-1938 -97 c-2 -24 -4 -7 -4 37 0 44 2 63
4 43 2 -21 2 -57 0 -80z m1500 -20 c21 -23 26 -23 60 6 21 18 29 36 34 77 6
51 6 50 7 -26 1 -45 -2 -74 -7 -67 -6 10 -14 9 -38 -5 -29 -16 -32 -16 -57 0
-24 16 -26 22 -24 85 l2 67 3 -60 c3 -36 10 -67 20 -77z m-877 -8 c0 -5 -4
-10 -10 -10 -5 0 -10 5 -10 10 0 6 5 10 10 10 6 0 10 -4 10 -10z"/>
<path d="M5070 9464 c-90 -76 -78 -208 24 -258 120 -59 237 116 151 228 -46
60 -123 73 -175 30z"/>
<path d="M6509 9467 c-88 -58 -91 -189 -6 -251 38 -28 104 -27 145 2 32 23 62
86 62 130 0 66 -72 142 -135 142 -18 0 -47 -10 -66 -23z"/>
<path d="M3985 8017 c-97 -32 -166 -88 -227 -181 l-38 -59 0 -171 c0 -200 7
-223 87 -298 123 -114 278 -142 412 -73 160 81 255 274 222 452 -35 193 -176
332 -346 340 -40 1 -87 -3 -110 -10z"/>
<path d="M5222 7778 l3 -563 190 -3 c225 -4 302 7 404 55 171 81 264 239 278
468 16 282 -105 493 -333 577 -53 19 -83 22 -302 26 l-242 4 2 -564z"/>
<path d="M2943 8012 c-141 -50 -242 -180 -260 -334 l-6 -48 382 0 c209 0 381
3 381 8 0 4 -7 36 -15 71 -45 189 -180 310 -355 318 -55 3 -89 -1 -127 -15z"/>
<path d="M6645 8021 c-94 -25 -166 -76 -219 -155 -38 -56 -76 -158 -76 -206
l0 -30 380 0 381 0 -6 38 c-36 209 -177 351 -359 358 -39 2 -84 -1 -101 -5z"/>
<path d="M8735 8017 c-68 -23 -98 -43 -153 -101 -94 -99 -137 -242 -113 -371
41 -223 237 -379 431 -343 103 19 207 90 258 176 26 46 27 52 30 220 3 161 2
175 -18 218 -32 64 -108 137 -185 175 -76 37 -182 48 -250 26z"/>
<path d="M3715 5659 c-32 -29 -35 -35 -35 -88 0 -62 19 -93 67 -112 79 -30
161 62 134 152 -24 80 -103 103 -166 48z"/>
<path d="M7571 5676 c-75 -42 -65 -178 16 -212 27 -12 42 -13 69 -4 47 16 64
44 64 108 0 64 -11 87 -50 107 -35 18 -67 19 -99 1z"/>
<path d="M3300 5695 c-59 -126 -62 -115 31 -115 93 0 91 -8 34 115 l-33 70
-32 -70z"/>
<path d="M4004 5656 c-19 -19 -34 -43 -34 -55 0 -20 5 -21 105 -21 113 0 117
2 94 53 -14 31 -59 57 -99 57 -23 0 -42 -10 -66 -34z"/>
<path d="M4934 5680 c-36 -14 -54 -50 -54 -106 0 -61 23 -97 74 -114 41 -13
75 -2 104 35 76 96 -15 229 -124 185z"/>
<path d="M5363 5565 c-36 -16 -45 -39 -27 -76 34 -69 164 -32 164 46 0 30 -3
33 -37 39 -52 8 -63 7 -100 -9z"/>
<path d="M6441 5674 c-19 -14 -51 -69 -51 -89 0 -3 50 -5 111 -5 110 0 110 0
104 23 -4 12 -14 32 -22 45 -26 42 -100 55 -142 26z"/>
<path d="M6859 5662 c-25 -23 -33 -38 -36 -78 -5 -44 -2 -54 23 -83 36 -43 68
-55 110 -41 50 17 74 53 74 112 0 43 -4 54 -34 84 -44 44 -92 46 -137 6z"/>
<path d="M7872 5674 c-22 -15 -52 -63 -52 -84 0 -6 40 -10 111 -10 110 0 110
0 104 23 -4 12 -14 32 -22 45 -26 41 -100 55 -141 26z"/>
<path d="M4742 4937 c-47 -27 -70 -89 -52 -143 14 -41 63 -84 96 -84 33 0 81
25 94 49 14 27 12 123 -3 141 -36 47 -90 61 -135 37z"/>
<path d="M6614 4940 c-38 -15 -54 -50 -54 -116 0 -56 3 -65 27 -83 38 -31 70
-36 109 -18 45 22 68 68 61 126 -9 77 -75 119 -143 91z"/>
<path d="M7019 4922 c-61 -54 -47 -164 25 -199 42 -20 79 -11 117 27 24 23 29
37 29 77 0 55 -17 86 -60 108 -43 22 -76 18 -111 -13z"/>
<path d="M2543 4940 c-31 -13 -63 -68 -63 -110 0 -69 65 -131 123 -116 69 17
110 96 83 159 -26 64 -84 91 -143 67z"/>
<path d="M3552 4925 c-17 -14 -35 -39 -41 -55 l-10 -30 110 0 c120 0 123 2 89
58 -34 56 -99 68 -148 27z"/>
<path d="M4429 4922 c-26 -23 -32 -38 -36 -78 -5 -60 11 -93 58 -118 44 -24
82 -16 121 26 23 25 28 39 28 80 0 44 -4 54 -34 84 -44 44 -92 46 -137 6z"/>
<path d="M5053 4940 c-23 -9 -63 -65 -63 -87 0 -10 29 -13 109 -13 l110 0 -10
30 c-22 62 -87 93 -146 70z"/>
<path d="M6284 4916 c-19 -19 -34 -43 -34 -55 0 -20 5 -21 105 -21 67 0 105 4
105 10 0 6 -7 24 -15 40 -36 69 -106 81 -161 26z"/>
<path d="M7341 4937 c-13 -6 -32 -30 -42 -52 l-18 -40 106 -3 c58 -1 108 0
111 2 11 12 -24 70 -52 87 -35 21 -69 23 -105 6z"/>
<path d="M7954 4916 c-28 -28 -34 -41 -34 -77 0 -58 18 -90 61 -113 42 -23 79
-17 115 19 20 20 24 34 24 80 0 67 -10 90 -50 110 -46 24 -78 19 -116 -19z"/>
<path d="M8544 4916 c-19 -19 -34 -43 -34 -55 0 -20 5 -21 105 -21 97 0 105 1
105 19 0 11 -15 36 -34 55 -46 50 -94 50 -142 2z"/>
<path d="M3959 3901 c-26 -26 -29 -36 -29 -89 0 -55 3 -63 31 -86 33 -28 85
-34 120 -16 32 18 62 87 54 128 -16 87 -116 123 -176 63z"/>
<path d="M4640 3861 l0 -151 53 1 c72 1 118 20 145 60 20 29 23 44 20 102 -3
60 -7 71 -36 99 -29 30 -38 33 -107 36 l-75 4 0 -151z"/>
<path d="M4998 3804 c-55 -29 -27 -94 40 -94 53 0 82 23 82 64 0 26 -5 35 -22
40 -37 9 -71 6 -100 -10z"/>
<path d="M6767 3909 c-9 -5 -24 -23 -32 -39 -55 -107 63 -213 146 -131 62 63
21 181 -63 181 -18 0 -41 -5 -51 -11z"/>
<path d="M6172 3077 c-45 -21 -41 -102 5 -113 32 -9 55 5 68 40 16 46 -30 93
-73 73z"/>
<path d="M4432 3074 c-45 -31 -19 -114 36 -114 23 0 52 35 52 63 0 18 -42 67
-57 67 -5 0 -19 -7 -31 -16z"/>
<path d="M5275 3078 c-27 -15 -35 -28 -35 -59 0 -51 60 -77 93 -41 18 19 22
59 9 78 -15 23 -47 33 -67 22z"/>
<path d="M5970 3070 c-32 -32 -24 -40 35 -40 61 0 73 16 33 44 -30 21 -44 20
-68 -4z"/>
<path d="M6400 3070 c-32 -32 -24 -40 35 -40 30 0 55 5 55 10 0 15 -38 50 -55
50 -8 0 -24 -9 -35 -20z"/>
<path d="M6741 3073 c-18 -12 -21 -23 -19 -56 3 -35 7 -43 30 -51 37 -13 68
14 68 59 0 49 -42 74 -79 48z"/>
<path d="M6922 3074 c-40 -28 -28 -44 33 -44 61 0 68 9 29 39 -32 25 -33 25
-62 5z"/>
<path d="M7157 2042 c-24 -26 -22 -79 2 -92 69 -36 135 36 81 90 -25 25 -62
26 -83 2z"/>
<path d="M5285 2075 c-58 -57 -7 -164 62 -132 62 28 40 157 -27 157 -6 0 -22
-11 -35 -25z"/>
<path d="M5525 2075 c-41 -40 -30 -116 18 -134 54 -20 102 49 77 110 -22 52
-58 62 -95 24z"/>
<path d="M6857 2079 c-21 -15 -27 -29 -27 -58 0 -69 49 -105 95 -69 20 15 25
28 25 62 0 71 -45 103 -93 65z"/>
<path d="M4190 2067 c-14 -7 -26 -23 -28 -35 -3 -21 0 -22 57 -22 69 0 79 14
35 49 -31 24 -31 25 -64 8z"/>
<path d="M4682 2070 c-72 -29 -28 -156 45 -129 47 17 56 77 18 114 -26 27 -29
28 -63 15z"/>
<path d="M6442 2064 c-12 -8 -22 -24 -22 -35 0 -17 7 -19 60 -19 66 0 73 8 35
45 -28 29 -42 31 -73 9z"/>
</g>
</svg>
